{
  "accessors": [
    {
      "bufferView": 1,
      "componentType": 5126,
      "count": 65533,
      "max": [
        5.4633569717407227,
        12.472668647766113,
        5.5619635581970215
      ],
      "min": [
        -2.8437159061431885,
        -6.2228999137878418,
        -1.3886650800704956
      ],
      "type": "VEC3"
    },
    {
      "bufferView": 1,
      "byteOffset": 786396,
      "componentType": 5126,
      "count": 65533,
      "max": [
        0.99986618757247925,
        0.99999654293060303,
        0.99972152709960938
      ],
      "min": [
        -0.99992305040359497,
        -0.99998348951339722,
        -0.99999111890792847
      ],
      "type": "VEC3"
    },
    {
      "bufferView": 2,
      "componentType": 5126,
      "count": 65533,
      "max": [
        0.9997483491897583,
        0.99992883205413818,
        0.99998015165328979,
        1
      ],
      "min": [
        -0.99999314546585083,
        -0.99988311529159546,
        -0.9996107816696167,
        -1
      ],
      "type": "VEC4"
    },
    {
      "bufferView": 2,
      "byteOffset": 1048528,
      "componentType": 5126,
      "count": 65533,
      "max": [
        1,
        1,
        1,
        1
      ],
      "min": [
        0.019607843831181526,
        0.0039215688593685627,
        0,
        0
      ],
      "type": "VEC4"
    },
    {
      "bufferView": 0,
      "componentType": 5125,
      "count": 157068,
      "max": [
        65532
      ],
      "min": [
        0
      ],
      "type": "SCALAR"
    },
    {
      "bufferView": 1,
      "byteOffset": 1572792,
      "componentType": 5126,
      "count": 65532,
      "max": [
        5.2316961288452148,
        12.633088111877441,
        4.6143093109130859
      ],
      "min": [
        -1.8457525968551636,
        0.77182698249816895,
        -1.4531701803207397
      ],
      "type": "VEC3"
    },
    {
      "bufferView": 1,
      "byteOffset": 2359176,
      "componentType": 5126,
      "count": 65532,
      "max": [
        0.99997478723526001,
        0.99996447563171387,
        0.99998229742050171
      ],
      "min": [
        -0.99998569488525391,
        -0.99995577335357666,
        -0.99995386600494385
      ],
      "type": "VEC3"
    },
    {
      "bufferView": 2,
      "byteOffset": 2097056,
      "componentType": 5126,
      "count": 65532,
      "max": [
        0.99980795383453369,
        0.99997830390930176,
        0.99998271465301514,
        1
      ],
      "min": [
        -0.99993067979812622,
        -0.99998182058334351,
        -0.99946403503417969,
        -1
      ],
      "type": "VEC4"
    },
    {
      "bufferView": 2,
      "byteOffset": 3145568,
      "componentType": 5126,
      "count": 65532,
      "max": [
        1,
        1,
        1,
        1
      ],
      "min": [
        0,
        0,
        0,
        0
      ],
      "type": "VEC4"
    },
    {
      "bufferView": 0,
      "byteOffset": 628272,
      "componentType": 5125,
      "count": 160194,
      "max": [
        65531
      ],
      "min": [
        0
      ],
      "type": "SCALAR"
    },
    {
      "bufferView": 1,
      "byteOffset": 3145560,
      "componentType": 5126,
      "count": 65533,
      "max": [
        5.2316961288452148,
        12.633088111877441,
        4.6143093109130859
      ],
      "min": [
        -1.8457525968551636,
        5.7932744026184082,
        -1.4531701803207397
      ],
      "type": "VEC3"
    },
    {
      "bufferView": 1,
      "byteOffset": 3931956,
      "componentType": 5126,
      "count": 65533,
      "max": [
        0.99963784217834473,
        0.99980127811431885,
        0.99998229742050171
      ],
      "min": [
        -0.99963712692260742,
        -0.99890351295471191,
        -0.99995386600494385
      ],
      "type": "VEC3"
    },
    {
      "bufferView": 2,
      "byteOffset": 4194080,
      "componentType": 5126,
      "count": 65533,
      "max": [
        0.99926894903182983,
        0.99890321493148804,
        0.99996656179428101,
        1
      ],
      "min": [
        -0.99965846538543701,
        -0.99892240762710571,
        -0.99910199642181396,
        -1
      ],
      "type": "VEC4"
    },
    {
      "bufferView": 2,
      "byteOffset": 5242608,
      "componentType": 5126,
      "count": 65533,
      "max": [
        0.97647058963775635,
        0.85098040103912354,
        0.20784313976764679,
        1
      ],
      "min": [
        0,
        0,
        0,
        0
      ],
      "type": "VEC4"
    },
    {
      "bufferView": 0,
      "byteOffset": 1269048,
      "componentType": 5125,
      "count": 166416,
      "max": [
        65532
      ],
      "min": [
        0
      ],
      "type": "SCALAR"
    },
    {
      "bufferView": 1,
      "byteOffset": 4718352,
      "componentType": 5126,
      "count": 65532,
      "max": [
        5.2316961288452148,
        11.392130851745605,
        4.6143093109130859
      ],
      "min": [
        -2.8567149639129639,
        0.11081748455762863,
        -1.4343907833099365
      ],
      "type": "VEC3"
    },
    {
      "bufferView": 1,
      "byteOffset": 5504736,
      "componentType": 5126,
      "count": 65532,
      "max": [
        0.99997437000274658,
        0.99980127811431885,
        0.99998229742050171
      ],
      "min": [
        -0.99963712692260742,
        -0.99965643882751465,
        -0.99995386600494385
      ],
      "type": "VEC3"
    },
    {
      "bufferView": 2,
      "byteOffset": 6291136,
      "componentType": 5126,
      "count": 65532,
      "max": [
        0.99937605857849121,
        0.99900835752487183,
        0.99996656179428101,
        1
      ],
      "min": [
        -0.99965846538543701,
        -0.99900823831558228,
        -0.99934715032577515,
        -1
      ],
      "type": "VEC4"
    },
    {
      "bufferView": 2,
      "byteOffset": 7339648,
      "componentType": 5126,
      "count": 65532,
      "max": [
        0.97647058963775635,
        0.85098040103912354,
        0.20784313976764679,
        1
      ],
      "min": [
        0,
        0,
        0,
        0.15686275064945221
      ],
      "type": "VEC4"
    },
    {
      "bufferView": 0,
      "byteOffset": 1934712,
      "componentType": 5125,
      "count": 140874,
      "max": [
        65531
      ],
      "min": [
        0
      ],
      "type": "SCALAR"
    },
    {
      "bufferView": 1,
      "byteOffset": 6291120,
      "componentType": 5126,
      "count": 65532,
      "max": [
        5.2881817817687988,
        5.1311287879943848,
        5.2505669593811035
      ],
      "min": [
        -1.8708159923553467,
        -0.46392166614532471,
        0.17770864069461823
      ],
      "type": "VEC3"
    },
    {
      "bufferView": 1,
      "byteOffset": 7077504,
      "componentType": 5126,
      "count": 65532,
      "max": [
        1,
        0.99999940395355225,
        0.99983441829681396
      ],
      "min": [
        -0.99964785575866699,
        -0.99999499320983887,
        -0.999988853931427
      ],
      "type": "VEC3"
    },
    {
      "bufferView": 2,
      "byteOffset": 8388160,
      "componentType": 5126,
      "count": 65532,
      "max": [
        0.99998819828033447,
        0.99999278783798218,
        0.99992102384567261,
        1
      ],
      "min": [
        -0.9999157190322876,
        -0.99999266862869263,
        -0.99997007846832275,
        -1
      ],
      "type": "VEC4"
    },
    {
      "bufferView": 2,
      "byteOffset": 9436672,
      "componentType": 5126,
      "count": 65532,
      "max": [
        1,
        1,
        1,
        1
      ],
      "min": [
        0,
        0,
        0,
        0.027450980618596077
      ],
      "type": "VEC4"
    },
    {
      "bufferView": 0,
      "byteOffset": 2498208,
      "componentType": 5125,
      "count": 161523,
      "max": [
        65531
      ],
      "min": [
        0
      ],
      "type": "SCALAR"
    },
    {
      "bufferView": 1,
      "byteOffset": 7863888,
      "componentType": 5126,
      "count": 65533,
      "max": [
        1.1814550161361694,
        3.579308032989502,
        5.2280364036560059
      ],
      "min": [
        -2.2423889636993408,
        -0.32724657654762268,
        2.3868143558502197
      ],
      "type": "VEC3"
    },
    {
      "bufferView": 1,
      "byteOffset": 8650284,
      "componentType": 5126,
      "count": 65533,
      "max": [
        0.99989759922027588,
        0.99998360872268677,
        0.99995404481887817
      ],
      "min": [
        -0.9999854564666748,
        -0.99999809265136719,
        -0.99975347518920898
      ],
      "type": "VEC3"
    },
    {
      "bufferView": 2,
      "byteOffset": 10485184,
      "componentType": 5126,
      "count": 65533,
      "max": [
        0.99998408555984497,
        0.99999725818634033,
        0.99995368719100952,
        1
      ],
      "min": [
        -0.9999920129776001,
        -0.99998569488525391,
        -0.99993866682052612,
        -1
      ],
      "type": "VEC4"
    },
    {
      "bufferView": 2,
      "byteOffset": 11533712,
      "componentType": 5126,
      "count": 65533,
      "max": [
        1,
        1,
        1,
        1
      ],
      "min": [
        0.031372550874948502,
        0.0078431377187371254,
        0,
        1
      ],
      "type": "VEC4"
    },
    {
      "bufferView": 0,
      "byteOffset": 3144300,
      "componentType": 5125,
      "count": 149517,
      "max": [
        65532
      ],
      "min": [
        0
      ],
      "type": "SCALAR"
    },
    {
      "bufferView": 1,
      "byteOffset": 9436680,
      "componentType": 5126,
      "count": 65532,
      "max": [
        1.3244824409484863,
        3.9673702716827393,
        4.4148287773132324
      ],
      "min": [
        -1.8375942707061768,
        0.06386970728635788,
        2.494145393371582
      ],
      "type": "VEC3"
    },
    {
      "bufferView": 1,
      "byteOffset": 10223064,
      "componentType": 5126,
      "count": 65532,
      "max": [
        0.99995517730712891,
        0.99994981288909912,
        0.99997407197952271
      ],
      "min": [
        -0.99999338388442993,
        -0.99996745586395264,
        -0.99998074769973755
      ],
      "type": "VEC3"
    },
    {
      "bufferView": 2,
      "byteOffset": 12582240,
      "componentType": 5126,
      "count": 65532,
      "max": [
        0.9997936487197876,
        0.9999585747718811,
        0.99997460842132568,
        1
      ],
      "min": [
        -1,
        -0.99989700317382812,
        -0.99992388486862183,
        -1
      ],
      "type": "VEC4"
    },
    {
      "bufferView": 2,
      "byteOffset": 13630752,
      "componentType": 5126,
      "count": 65532,
      "max": [
        1,
        1,
        1,
        1
      ],
      "min": [
        0.0078431377187371254,
        0.0039215688593685627,
        0,
        0
      ],
      "type": "VEC4"
    },
    {
      "bufferView": 0,
      "byteOffset": 3742368,
      "componentType": 5125,
      "count": 140001,
      "max": [
        65531
      ],
      "min": [
        0
      ],
      "type": "SCALAR"
    },
    {
      "bufferView": 1,
      "byteOffset": 11009448,
      "componentType": 5126,
      "count": 65532,
      "max": [
        2.6662099361419678,
        3.766620397567749,
        4.9603075981140137
      ],
      "min": [
        -1.2931159734725952,
        -0.3167019784450531,
        0.91028362512588501
      ],
      "type": "VEC3"
    },
    {
      "bufferView": 1,
      "byteOffset": 11795832,
      "componentType": 5126,
      "count": 65532,
      "max": [
        0.99991613626480103,
        0.99993836879730225,
        0.99999308586120605
      ],
      "min": [
        -0.99995076656341553,
        -0.99998164176940918,
        -0.99999356269836426
      ],
      "type": "VEC3"
    },
    {
      "bufferView": 2,
      "byteOffset": 14679264,
      "componentType": 5126,
      "count": 65532,
      "max": [
        0.99996858835220337,
        0.99998933076858521,
        0.99999105930328369,
        1
      ],
      "min": [
        -0.99999880790710449,
        -0.99998825788497925,
        -0.99996507167816162,
        -1
      ],
      "type": "VEC4"
    },
    {
      "bufferView": 2,
      "byteOffset": 15727776,
      "componentType": 5126,
      "count": 65532,
      "max": [
        0.98039215803146362,
        0.78823530673980713,
        0.69019609689712524,
        1
      ],
      "min": [
        0.031372550874948502,
        0.0078431377187371254,
        0,
        1
      ],
      "type": "VEC4"
    },
    {
      "bufferView": 0,
      "byteOffset": 4302372,
      "componentType": 5125,
      "count": 138405,
      "max": [
        65531
      ],
      "min": [
        0
      ],
      "type": "SCALAR"
    },
    {
      "bufferView": 1,
      "byteOffset": 12582216,
      "componentType": 5126,
      "count": 65532,
      "max": [
        2.5717310905456543,
        2.6315505504608154,
        4.2776994705200195
      ],
      "min": [
        -0.46522992849349976,
        -0.5623021125793457,
        0.78718191385269165
      ],
      "type": "VEC3"
    },
    {
      "bufferView": 1,
      "byteOffset": 13368600,
      "componentType": 5126,
      "count": 65532,
      "max": [
        0.99999833106994629,
        0.99994295835494995,
        0.99996298551559448
      ],
      "min": [
        -0.999988853931427,
        -0.99998456239700317,
        -0.99999898672103882
      ],
      "type": "VEC3"
    },
    {
      "bufferView": 2,
      "byteOffset": 16776288,
      "componentType": 5126,
      "count": 65532,
      "max": [
        0.99999237060546875,
        0.9999840259552002,
        0.9999920129776001,
        1
      ],
      "min": [
        -0.99999839067459106,
        -0.99997043609619141,
        -0.99999451637268066,
        -1
      ],
      "type": "VEC4"
    },
    {
      "bufferView": 2,
      "byteOffset": 17824800,
      "componentType": 5126,
      "count": 65532,
      "max": [
        0.98039215803146362,
        0.78823530673980713,
        0.69019609689712524,
        1
      ],
      "min": [
        0.08235294371843338,
        0.043137256056070328,
        0.48235294222831726,
        1
      ],
      "type": "VEC4"
    },
    {
      "bufferView": 0,
      "byteOffset": 4855992,
      "componentType": 5125,
      "count": 140619,
      "max": [
        65531
      ],
      "min": [
        0
      ],
      "type": "SCALAR"
    },
    {
      "bufferView": 1,
      "byteOffset": 14154984,
      "componentType": 5126,
      "count": 65532,
      "max": [
        2.2281732559204102,
        6.0467839241027832,
        5.3376374244689941
      ],
      "min": [
        -1.1880757808685303,
        0.85996872186660767,
        1.6211810111999512
      ],
      "type": "VEC3"
    },
    {
      "bufferView": 1,
      "byteOffset": 14941368,
      "componentType": 5126,
      "count": 65532,
      "max": [
        0.9999842643737793,
        0.99984121322631836,
        0.99999922513961792
      ],
      "min": [
        -0.99998348951339722,
        -0.9999009370803833,
        -0.9999847412109375
      ],
      "type": "VEC3"
    },
    {
      "bufferView": 2,
      "byteOffset": 18873312,
      "componentType": 5126,
      "count": 65532,
      "max": [
        0.99996495246887207,
        0.99991846084594727,
        0.99996978044509888,
        1
      ],
      "min": [
        -0.99993997812271118,
        -0.99976921081542969,
        -0.99996334314346313,
        -1
      ],
      "type": "VEC4"
    },
    {
      "bufferView": 2,
      "byteOffset": 19921824,
      "componentType": 5126,
      "count": 65532,
      "max": [
        0.98039215803146362,
        0.78823530673980713,
        0.69019609689712524,
        1
      ],
      "min": [
        0.074509806931018829,
        0.043137256056070328,
        0.023529412224888802,
        1
      ],
      "type": "VEC4"
    },
    {
      "bufferView": 0,
      "byteOffset": 5418468,
      "componentType": 5125,
      "count": 142977,
      "max": [
        65531
      ],
      "min": [
        0
      ],
      "type": "SCALAR"
    },
    {
      "bufferView": 1,
      "byteOffset": 15727752,
      "componentType": 5126,
      "count": 45501,
      "max": [
        8.4104709625244141,
        5.1637020111083984,
        10.195711135864258
      ],
      "min": [
        -6.8440394401550293,
        -0.69689255952835083,
        -5.1320309638977051
      ],
      "type": "VEC3"
    },
    {
      "bufferView": 1,
      "byteOffset": 16273764,
      "componentType": 5126,
      "count": 45501,
      "max": [
        0.99958717823028564,
        0.99996858835220337,
        0.99998730421066284
      ],
      "min": [
        -0.99960178136825562,
        -0.99999511241912842,
        -0.99994766712188721
      ],
      "type": "VEC3"
    },
    {
      "bufferView": 2,
      "byteOffset": 20970336,
      "componentType": 5126,
      "count": 45501,
      "max": [
        1,
        0.99998611211776733,
        0.99978381395339966,
        1
      ],
      "min": [
        -1,
        -0.99996852874755859,
        -0.99991172552108765,
        -1
      ],
      "type": "VEC4"
    },
    {
      "bufferView": 2,
      "byteOffset": 21698352,
      "componentType": 5126,
      "count": 45501,
      "max": [
        1,
        1,
        1,
        1
      ],
      "min": [
        0.0078431377187371254,
        0.0039215688593685627,
        0,
        0.94901961088180542
      ],
      "type": "VEC4"
    },
    {
      "bufferView": 0,
      "byteOffset": 5990376,
      "componentType": 5125,
      "count": 95244,
      "max": [
        45500
      ],
      "min": [
        0
      ],
      "type": "SCALAR"
    }
  ],
  "asset": {
    "extras": {
      "author": "Alexandre Blain (https://sketchfab.com/Noir.Keane)",
      "license": "CC-BY-4.0 (http://creativecommons.org/licenses/by/4.0/)",
      "source": "https://sketchfab.com/models/4af93a3325db49cf85c2629415078613",
      "title": "Boubou the Witch vs Yellow Ducks"
    },
    "generator": "Sketchfab-3.18.6",
    "version": "2.0"
  },
  "bufferViews": [
    {
      "buffer": 0,
      "byteLength": 6371352,
      "byteOffset": 0,
      "name": "floatBufferViews",
      "target": 34963
    },
    {
      "buffer": 0,
      "byteLength": 16819776,
      "byteOffset": 6371352,
      "byteStride": 12,
      "name": "floatBufferViews",
      "target": 34962
    },
    {
      "buffer": 0,
      "byteLength": 22426368,
      "byteOffset": 23191128,
      "byteStride": 16,
      "name": "floatBufferViews",
      "target": 34962
    }
  ],
  "buffers": [
    {
      "byteLength": 45617496,
      "uri": "scene.bin"
    }
  ],
  "extensionsUsed": [
    "KHR_materials_unlit"
  ],
  "materials": [
    {
      "doubleSided": true,
      "extensions": {
        "KHR_materials_unlit": {}
      },
      "name": "Scene_-_Root",
      "pbrMetallicRoughness": {
        "baseColorFactor": [
          1,
          1,
          1,
          1
        ],
        "metallicFactor": 0,
        "roughnessFactor": 1
      }
    }
  ],
  "meshes": [
    {
      "name": "Reflections2__0",
      "primitives": [
        {
          "attributes": {
            "COLOR_0": 3,
            "NORMAL": 1,
            "POSITION": 0,
            "TANGENT": 2
          },
          "indices": 4,
          "material": 0,
          "mode": 4
        }
      ]
    },
    {
      "name": "Reflections2__0",
      "primitives": [
        {
          "attributes": {
            "COLOR_0": 8,
            "NORMAL": 6,
            "POSITION": 5,
            "TANGENT": 7
          },
          "indices": 9,
          "material": 0,
          "mode": 4
        }
      ]
    },
    {
      "name": "Reflections2__0",
      "primitives": [
        {
          "attributes": {
            "COLOR_0": 13,
            "NORMAL": 11,
            "POSITION": 10,
            "TANGENT": 12
          },
          "indices": 14,
          "material": 0,
          "mode": 4
        }
      ]
    },
    {
      "name": "Reflections2__0",
      "primitives": [
        {
          "attributes": {
            "COLOR_0": 18,
            "NORMAL": 16,
            "POSITION": 15,
            "TANGENT": 17
          },
          "indices": 19,
          "material": 0,
          "mode": 4
        }
      ]
    },
    {
      "name": "Reflections2__0",
      "primitives": [
        {
          "attributes": {
            "COLOR_0": 23,
            "NORMAL": 21,
            "POSITION": 20,
            "TANGENT": 22
          },
          "indices": 24,
          "material": 0,
          "mode": 4
        }
      ]
    },
    {
      "name": "Reflections2__0",
      "primitives": [
        {
          "attributes": {
            "COLOR_0": 28,
            "NORMAL": 26,
            "POSITION": 25,
            "TANGENT": 27
          },
          "indices": 29,
          "material": 0,
          "mode": 4
        }
      ]
    },
    {
      "name": "Reflections2__0",
      "primitives": [
        {
          "attributes": {
            "COLOR_0": 33,
            "NORMAL": 31,
            "POSITION": 30,
            "TANGENT": 32
          },
          "indices": 34,
          "material": 0,
          "mode": 4
        }
      ]
    },
    {
      "name": "Reflections2__0",
      "primitives": [
        {
          "attributes": {
            "COLOR_0": 38,
            "NORMAL": 36,
            "POSITION": 35,
            "TANGENT": 37
          },
          "indices": 39,
          "material": 0,
          "mode": 4
        }
      ]
    },
    {
      "name": "Reflections2__0",
      "primitives": [
        {
          "attributes": {
            "COLOR_0": 43,
            "NORMAL": 41,
            "POSITION": 40,
            "TANGENT": 42
          },
          "indices": 44,
          "material": 0,
          "mode": 4
        }
      ]
    },
    {
      "name": "Reflections2__0",
      "primitives": [
        {
          "attributes": {
            "COLOR_0": 48,
            "NORMAL": 46,
            "POSITION": 45,
            "TANGENT": 47
          },
          "indices": 49,
          "material": 0,
          "mode": 4
        }
      ]
    },
    {
      "name": "Reflections2__0",
      "primitives": [
        {
          "attributes": {
            "COLOR_0": 53,
            "NORMAL": 51,
            "POSITION": 50,
            "TANGENT": 52
          },
          "indices": 54,
          "material": 0,
          "mode": 4
        }
      ]
    }
  ],
  "nodes": [
    {
      "children": [
        1
      ],
      "name": "RootNode (gltf orientation matrix)",
      "rotation": [
        -0.70710678118654746,
        -0,
        -0,
        0.70710678118654757
      ]
    },
    {
      "children": [
        2
      ],
      "name": "RootNode (model correction matrix)"
    },
    {
      "children": [
        3
      ],
      "matrix": [
        1,
        0,
        0,
        0,
        0,
        0,
        1,
        0,
        0,
        -1,
        0,
        0,
        0,
        0,
        0,
        1
      ],
      "name": "0310cbf798434183b5ce4165573ed9ab.fbx"
    },
    {
      "children": [
        4
      ],
      "name": "RootNode"
    },
    {
      "children": [
        5
      ],
      "name": "BakedMesh"
    },
    {
      "children": [
        6
      ],
      "name": "Root"
    },
    {
      "children": [
        7,
        8,
        9,
        10,
        11,
        12,
        13,
        14,
        15,
        16,
        17
      ],
      "name": "Reflections2"
    },
    {
      "mesh": 0,
      "name": "Reflections2__0"
    },
    {
      "mesh": 1,
      "name": "Reflections2__0"
    },
    {
      "mesh": 2,
      "name": "Reflections2__0"
    },
    {
      "mesh": 3,
      "name": "Reflections2__0"
    },
    {
      "mesh": 4,
      "name": "Reflections2__0"
    },
    {
      "mesh": 5,
      "name": "Reflections2__0"
    },
    {
      "mesh": 6,
      "name": "Reflections2__0"
    },
    {
      "mesh": 7,
      "name": "Reflections2__0"
    },
    {
      "mesh": 8,
      "name": "Reflections2__0"
    },
    {
      "mesh": 9,
      "name": "Reflections2__0"
    },
    {
      "mesh": 10,
      "name": "Reflections2__0"
    }
  ],
  "scene": 0,
  "scenes": [
    {
      "name": "OSG_Scene",
      "nodes": [
        0
      ]
    }
  ]
}

